<?xml version="1.0" encoding="utf-8"?>
<!-- Generator: Adobe Illustrator 26.0.0, SVG Export Plug-In . SVG Version: 6.00 Build 0)  -->
<svg version="1.1" id="Calque_1" xmlns="http://www.w3.org/2000/svg" xmlns:xlink="http://www.w3.org/1999/xlink" x="0px" y="0px"
	 viewBox="0 0 60 60" style="enable-background:new 0 0 60 60;" xml:space="preserve">
<style type="text/css">
	.st0{fill:#424B54;stroke:#FFFFFF;stroke-width:2;stroke-miterlimit:10;}
	.st1{fill:#FFE3AF;}
</style>
<g id="up">
	<g>
		<path id="Rectangle_60-2" class="st0" d="M20.6,1.9h19c10.5,0,19.1,8.5,19.1,19c0,0,0,0.1,0,0.1v19c0,10.5-8.5,19-19,19h-19
			c-10.5,0-19-8.5-19-19V21C1.6,10.5,10.1,2,20.6,1.9z"/>
	</g>
	<path id="Tracé_958" class="st1" d="M30.4,41.1c0.8,0,1.4-0.6,1.4-1.4l0,0l0,0V24.8l5.2,5.5c0.6,0.5,1.4,0.4,1.9-0.2
		c0.4-0.5,0.4-1.1,0.1-1.6c0,0,0-0.1-0.1-0.1l-7.5-8.1c-0.5-0.5-1.4-0.6-1.9-0.1c0,0,0,0,0,0l-0.1,0.1l-7.5,8.1
		c-0.5,0.6-0.5,1.4,0,2s1.4,0.5,2,0l0,0v0l5.1-5.5v14.9C29,40.5,29.6,41.1,30.4,41.1C30.4,41.1,30.4,41.1,30.4,41.1z"/>
</g>
</svg>
