<?xml version="1.0" encoding="utf-8"?>
<!-- Generator: Adobe Illustrator 26.0.0, SVG Export Plug-In . SVG Version: 6.00 Build 0)  -->
<svg version="1.1" id="Layer_1" xmlns="http://www.w3.org/2000/svg" xmlns:xlink="http://www.w3.org/1999/xlink" x="0px" y="0px"
	 viewBox="0 0 1024 488" style="enable-background:new 0 0 1024 488;" xml:space="preserve">
<style type="text/css">
	.st0{fill-rule:evenodd;clip-rule:evenodd;}
</style>
<g>
	<g>
		<path class="st0" d="M740.9,488c-28.3,0-55.5,0-84.1,0c25-128.6,49.9-256.7,74.9-385c2.4-0.2,4.4-0.6,6.3-0.6
			c54.2,0,108.4-0.4,162.6,0.3c15.3,0.2,31,2.4,45.8,6.2c48.4,12.3,77,48.1,77.5,97.9c0.6,58.5-20.9,107.5-67.3,144.6
			c-30.1,24-65.3,32.5-102.6,33.7c-28.3,0.9-56.6,0.5-84.8,0.4c-6,0-8.7,1.3-9.9,7.9C753.6,424.7,747.2,456,740.9,488z M772.5,325.8
			c29.3-1.1,56.6-0.9,83.5-3.6c35.2-3.6,60.3-22.6,70.6-57.1c5-16.5,8.1-34,8.9-51.3c1.2-27.2-10.2-42.7-37.3-46.4
			c-30.8-4.2-62.1-4.2-93.8-6C793.7,216.8,783.4,270.1,772.5,325.8z"/>
		<path class="st0" d="M84.1,487.9c-28.3,0-55.8,0-84.1,0C25,359.4,49.8,231.4,74.8,103c2.8-0.2,5.4-0.6,8-0.6
			c53.2,0,106.4-0.4,159.6,0.3c15,0.2,30.3,2.1,44.9,5.7c47.9,11.7,75.6,42,79.2,91c7.1,95.6-56.8,163-120.1,178.4
			c-16.9,4.1-34.5,6.4-51.8,7.2c-27.6,1.2-55.2,0.6-82.8,0.5c-5.7,0-8.1,1.4-9.2,7.5C96.8,424.3,90.4,455.6,84.1,487.9z
			 M115.7,325.8c29.1-1.1,56.4-0.8,83.4-3.6c36.1-3.7,61.2-23.5,71.4-58.9c4.6-16,7.6-32.8,8.3-49.4c1.2-27.2-10.3-42.8-37.2-46.5
			c-30.8-4.2-62.1-4.2-93.9-6C136.9,216.8,126.5,270.1,115.7,325.8z"/>
		<path class="st0" d="M425.2,0c28.4,0,55.5,0,83.4,0c-6.6,34.2-13.1,67.8-19.7,102.3c22.7,0,44.6-0.8,66.4,0.2
			c22.1,1,44.6,1.5,66.1,6.1c45.4,9.7,64.5,39.2,56.4,85.6c-9.2,52.6-19.9,105-30,157.5c-1.8,9.2-3.2,18.6-5.6,27.7
			c-0.6,2.4-3.9,5.8-6.1,5.9c-26.2,0.4-52.4,0.3-79.7,0.3c4.9-25.5,9.6-49.8,14.3-74.2c6.8-35.3,13.9-70.6,20.1-106
			c4.5-25.9-5.5-38.8-31.9-39.9c-26.9-1.2-53.8-0.3-82.2-0.3c-14.2,72.9-28.4,145.9-42.8,219.7c-27.5,0-54.9,0-83.4,0
			C375.3,256.4,400.2,128.5,425.2,0z"/>
	</g>
</g>
</svg>
