<svg id="Calque_1" data-name="Calque 1" xmlns="http://www.w3.org/2000/svg" viewBox="0 0 186 220"><defs><style>.cls-1,.cls-3{fill:#fff;}.cls-1,.cls-4{stroke:#ffe3af;}.cls-1,.cls-4,.cls-5{stroke-miterlimit:10;}.cls-1{stroke-width:3px;}.cls-2{fill:#ffe3af;}.cls-4,.cls-5{fill:none;}.cls-5{stroke:#424b54;}</style></defs><path class="cls-1" d="M101.29,53.47H54.57V169.94h46.72a41.28,41.28,0,0,0,41.28-41.28V94.75A41.28,41.28,0,0,0,101.29,53.47Zm23.16,68.26a24.68,24.68,0,0,1-24.69,24.69H71.82V76.77H99.76a24.68,24.68,0,0,1,24.69,24.68Z"/><path class="cls-2" d="M82.18,76.74H71.45v69.91h29.06c14.17,0,25.67-11.09,25.67-24.78V101.52c0-13.69-11.5-24.78-25.67-24.78H82.18m32.73,41a15.09,15.09,0,0,1-15.35,14.82H82.18V90.72H99.56a15.09,15.09,0,0,1,15.35,14.82Z"/><path class="cls-3" d="M99.41,90.28H81.54v42.56H99.41c8.71,0,15.78-6.75,15.78-15.08V105.37C115.19,97,108.12,90.28,99.41,90.28Zm8.85,25a9.23,9.23,0,0,1-9.44,9H88.14V98.8H98.82a9.23,9.23,0,0,1,9.44,9Z"/><polygon class="cls-4" points="10.8 63.11 94.57 14.74 178.34 63.11 178.34 159.84 94.57 208.2 10.8 159.84 10.8 63.11"/><line class="cls-5" x1="56.07" y1="55.02" x2="56.07" y2="168.52"/><line class="cls-5" x1="70.07" y1="75.32" x2="70.07" y2="147.97"/><path class="cls-2" d="M95,105H93.12v12.06h5a4.35,4.35,0,0,0,4.43-4.27v-3.52A4.35,4.35,0,0,0,98.14,105H95m5.64,7.07A2.6,2.6,0,0,1,98,114.65H95v-7.22h3a2.6,2.6,0,0,1,2.65,2.56Z"/><rect class="cls-2" x="94.32" y="106.22" width="6.5" height="8.5"/></svg>