<?xml version="1.0" encoding="utf-8"?>
<!-- Generator: Adobe Illustrator 26.0.3, SVG Export Plug-In . SVG Version: 6.00 Build 0)  -->
<svg version="1.1" id="Calque_1" xmlns="http://www.w3.org/2000/svg" xmlns:xlink="http://www.w3.org/1999/xlink" x="0px" y="0px"
	 viewBox="0 0 168.6 220" style="enable-background:new 0 0 168.6 220;" xml:space="preserve">
<style type="text/css">
	.st0{fill:#424B54;}
	.st1{fill:#FFFFFF;stroke:#FFE3AF;stroke-width:3;stroke-miterlimit:10;}
	.st2{fill:#FFE3AF;}
	.st3{fill:#FFFFFF;}
	.st4{fill:none;stroke:#FFE3AF;stroke-miterlimit:10;}
	.st5{fill:none;stroke:#424B54;stroke-miterlimit:10;}
</style>
<rect x="0" class="st0" width="168.5" height="220"/>
<path class="st1" d="M91,53.5H44.3v116.5H91c22.8,0,41.3-18.5,41.3-41.3l0,0V94.8C132.3,72,113.8,53.5,91,53.5z M114.2,121.7
	c0,13.6-11,24.7-24.7,24.7h-28V76.8h28c13.6,0,24.7,11,24.7,24.7c0,0,0,0,0,0l0,0V121.7z"/>
<path class="st2" d="M71.9,76.7H61.2v69.9h29.1c14.2,0,25.7-11.1,25.7-24.8v-20.3c0-13.7-11.5-24.8-25.7-24.8H71.9 M104.6,117.7
	c-0.2,8.3-7,15-15.3,14.8H71.9V90.7h17.4c8.3-0.1,15.2,6.5,15.3,14.8V117.7z"/>
<path class="st3" d="M89.1,90.3H71.2v42.6h17.9c8.7,0,15.8-6.8,15.8-15.1v-12.4C104.9,97,97.8,90.3,89.1,90.3z M98,115.3
	c-0.1,5.1-4.3,9.1-9.4,9H77.8V98.8h10.7c5.1-0.1,9.3,3.9,9.4,9V115.3z"/>
<polygon class="st4" points="0.5,63.1 84.3,14.7 168.1,63.1 168.1,159.8 84.3,208.2 0.5,159.8 "/>
<line class="st5" x1="45.8" y1="55" x2="45.8" y2="168.5"/>
<line class="st5" x1="59.8" y1="75.3" x2="59.8" y2="148"/>
<path class="st2" d="M84.7,105h-1.9v12.1h5c2.4,0,4.4-1.9,4.4-4.3l0,0v-3.5c0-2.4-2-4.3-4.4-4.3H84.7 M90.3,112.1
	c0,1.4-1.2,2.6-2.6,2.6c0,0,0,0,0,0h-3v-7.2h3c1.4,0,2.6,1.1,2.6,2.6c0,0,0,0,0,0l0,0L90.3,112.1z"/>
<rect x="84" y="106.2" class="st2" width="6.5" height="8.5"/>
</svg>
