<svg id="Calque_1" data-name="Calque 1" xmlns="http://www.w3.org/2000/svg" viewBox="0 0 168.55 220"><defs><style>.cls-1,.cls-3{fill:#fff;}.cls-1,.cls-4{stroke:#ffe3af;}.cls-1,.cls-4,.cls-5{stroke-miterlimit:10;}.cls-1{stroke-width:3px;}.cls-2{fill:#ffe3af;}.cls-4,.cls-5{fill:none;}.cls-5{stroke:#424b54;}</style></defs><path class="cls-1" d="M91,53.47H44.28V169.94H91a41.28,41.28,0,0,0,41.28-41.28h0V94.75A41.28,41.28,0,0,0,91,53.47Zm23.16,68.26a24.69,24.69,0,0,1-24.67,24.69h-28V76.77H89.47a24.68,24.68,0,0,1,24.69,24.67h0Z"/><path class="cls-2" d="M71.89,76.74H61.16v69.91H90.22c14.17,0,25.67-11.09,25.67-24.78V101.52c0-13.69-11.5-24.78-25.67-24.78H71.89m32.73,41a15.1,15.1,0,0,1-15.35,14.82H71.89V90.72H89.27a15.1,15.1,0,0,1,15.35,14.82Z"/><path class="cls-3" d="M89.12,90.28H71.25v42.56H89.12c8.71,0,15.78-6.75,15.78-15.08V105.37C104.9,97,97.83,90.28,89.12,90.28Zm8.85,25a9.23,9.23,0,0,1-9.44,9H77.85V98.8H88.53a9.23,9.23,0,0,1,9.44,9Z"/><polygon class="cls-4" points="0.51 63.11 84.28 14.74 168.05 63.11 168.05 159.84 84.28 208.2 0.51 159.84 0.51 63.11"/><line class="cls-5" x1="45.78" y1="55.02" x2="45.78" y2="168.52"/><line class="cls-5" x1="59.78" y1="75.32" x2="59.78" y2="147.97"/><path class="cls-2" d="M84.71,105H82.83v12.06h5a4.36,4.36,0,0,0,4.43-4.27h0v-3.52A4.36,4.36,0,0,0,87.85,105H84.71m5.64,7.07a2.6,2.6,0,0,1-2.62,2.58h-3v-7.22h3A2.6,2.6,0,0,1,90.36,110h0Z"/><rect class="cls-2" x="84.03" y="106.22" width="6.5" height="8.5"/></svg>