<?xml version="1.0" encoding="utf-8"?>
<!-- Generator: Adobe Illustrator 26.0.0, SVG Export Plug-In . SVG Version: 6.00 Build 0)  -->
<svg version="1.1" id="Layer_1" xmlns="http://www.w3.org/2000/svg" xmlns:xlink="http://www.w3.org/1999/xlink" x="0px" y="0px"
	 viewBox="0 0 1000.2 391" style="enable-background:new 0 0 1000.2 391;" xml:space="preserve">
<style type="text/css">
	.st0{fill:#D9E8FB;}
	.st1{opacity:0.8;}
	.st2{fill-rule:evenodd;clip-rule:evenodd;fill:#BFDAF9;}
	.st3{fill-rule:evenodd;clip-rule:evenodd;fill:#3E416D;}
	.st4{fill-rule:evenodd;clip-rule:evenodd;fill:#4D4D87;}
	.st5{fill-rule:evenodd;clip-rule:evenodd;fill:#49E7D9;}
</style>
<path class="st0" d="M96.6,0h197.9c53.3,0,96.6,43.2,96.6,96.6l0,0v197.9c0,53.3-43.2,96.5-96.5,96.5l0,0h-198
	C43.3,391,0,347.8,0,294.5l0,0V96.6C0.1,43.2,43.3,0,96.6,0L96.6,0z"/>
<g class="st1">
	<path class="st0" d="M294.5,5.4c50.3,0.1,91.1,40.8,91.1,91.1v197.9c-0.1,50.3-40.8,91.1-91.1,91.1H96.6
		c-50.3-0.1-91.1-40.8-91.1-91.1V96.6C5.6,46.3,46.3,5.5,96.6,5.5h197.9 M294.5,0H96.6C43.3,0,0,43.2,0,96.6l0,0v197.9
		C0,347.8,43.2,391,96.6,391h197.9c53.3,0,96.5-43.2,96.6-96.5l0,0V96.6C391.1,43.2,347.9,0,294.5,0L294.5,0L294.5,0z"/>
</g>
<g id="Group-14">
	<path id="Fill-2" class="st2" d="M23.8,171.7c0,27.3,2.5,61.3,7.3,76.4c7.6,23.2,15.4,39.4,35.6,47.4c25.7,10.1,82.4,7.3,128.9,7
		c46.5,0.3,103.2,3.1,128.9-7c20.2-7.9,28-24.1,35.6-47.4c4.8-15.1,7.3-49.1,7.3-76.4L23.8,171.7L23.8,171.7z"/>
	<path id="Fill-4" class="st3" d="M252.3,329.3c-4.4,11.1-12.1,20.5-22.1,27c-10.2,6.7-22.2,10.2-34.4,10.3
		c-12.2,0-24.2-3.5-34.4-10.3c-10-6.5-17.7-15.9-22.1-27c-2.1-5.6,0.7-11.8,6.3-13.9c4-1.5,8.5-0.5,11.5,2.6l0.5,0.5
		c5.1,5.5,11.2,9.9,17.9,13c12.9,5.9,27.7,5.9,40.6,0c6.7-3.2,12.8-7.6,17.9-13l0.5-0.5c4-4.3,10.8-4.5,15.1-0.4
		c0.1,0.1,0.1,0.1,0.2,0.2C252.7,320.9,253.7,325.3,252.3,329.3"/>
	<path id="Fill-6" class="st4" d="M23.8,157.3c0,27.3,2.5,61.3,7.3,76.4c7.6,23.2,17.5,33,37.7,40.9c25.7,10.1,80.3,16.6,126.8,16.4
		c46.5,0.3,101.2-6.3,126.8-16.4c20.2-7.9,30-17.5,37.7-40.9c4.9-15.1,7.3-49.1,7.3-76.4s-2.5-61.2-7.3-76.4
		c-7.5-23.2-17.5-33-37.7-40.9c-25.7-10.1-80.3-16.6-126.8-16.3C149.1,23.4,94.4,29.9,68.8,40c-20.1,8-30,17.6-37.7,40.9
		C26.2,96.1,23.8,130.1,23.8,157.3"/>
	<path id="Fill-8" class="st4" d="M230.1,341c-10.2,6.7-22.2,10.2-34.4,10.3c-12.2,0-24.2-3.5-34.4-10.3
		c-8.6-5.6-15.6-13.4-20.2-22.6c-2.6,3-3.3,7.2-1.9,10.9c4.4,11.1,12.1,20.5,22.1,27c10.2,6.7,22.2,10.3,34.4,10.3
		s24.2-3.6,34.4-10.3c10-6.5,17.7-15.9,22.1-27c1.3-3.7,0.6-7.8-1.9-10.9C245.7,327.6,238.7,335.4,230.1,341"/>
	<path id="Fill-10" class="st5" d="M128.4,203.2L128.4,203.2c-16,0-29-13-29-29v-33.6c0-16,13-29,29-29s29,13,29,29l0,0v33.6
		C157.4,190.2,144.4,203.2,128.4,203.2"/>
	<path id="Fill-12" class="st5" d="M262.8,203.2L262.8,203.2c-16,0-29-13-29-29v-33.6c0-16,13-29,29-29s29,13,29,29l0,0v33.6
		C291.8,190.2,278.8,203.2,262.8,203.2"/>
</g>
<path class="st3" d="M682.9,132c0,9.6-8.7,17.3-17.3,17.3c-9.6,0-16.3-7.7-16.3-17.3c-0.1-8.9,7.1-16.3,16.1-16.3c0.1,0,0.2,0,0.3,0
	C675.2,115.6,682.9,123.3,682.9,132z M583.9,248.3c0,4.8,2.9,7.7,7.7,7.7h9.6c4.8,0,7.7-2.9,7.7-7.7v-50c0-25-13.5-38.5-33.7-38.5
	c-13.5,0-25,10.6-30.8,18.3c-1.9,1-3.8,1-4.8-1c-4.8-11.5-15.4-17.3-28.8-17.3s-23.1,9.6-29.8,16.4c-1.9,1.9-3.8,1-3.8,0l-3.8-9.6
	c-1.9-3.8-3.8-4.8-6.7-4.8h-5.9c-3.1,0.2-5.6,2.7-5.8,5.8v80.8c0,4.8,2.9,7.7,7.7,7.7h9.6c4.8,0,7.7-2.9,7.7-7.7v-50.9
	c-0.1-2.6,1-5,2.9-6.7c4.8-3.9,11.5-8.7,18.3-8.7c10.6,0,18.3,6.7,18.3,18.3v49c0,4.8,2.9,7.7,7.7,7.7h9.7c4.8,0,7.7-2.9,7.7-7.7
	v-50c-0.1-2.6,1-5,2.9-6.7l0.9-0.7c4.7-3.8,11-8.9,17.4-8.9c10.6,0,18.3,6.7,18.3,18.3L583.9,248.3z M948.3,159.9
	c-30.8,0-51.9,21.1-51.9,48.1c0,27.9,21.2,50,51.9,50s51.9-22.1,51.9-50C1000.2,181,979,159.9,948.3,159.9L948.3,159.9z
	 M948.3,235.8c-15.4,0-27.9-10.6-27.9-26.9c0-15.4,11.5-26.9,27.9-26.9c15.4,0,27.9,10.6,27.9,26.9
	C976.1,224.3,963.6,235.8,948.3,235.8L948.3,235.8z M633.9,186.8c5.8,0,11.5-2.9,16.3-6.7c1-1,3.8-1,3.8,1v53.8h-17.2
	c-4.8,0-7.7,2.9-7.7,7.7v4.8c0,4.8,2.9,7.7,7.7,7.7h58.6c4.8,0,7.7-2.9,7.7-7.7v-4.8c0-4.8-2.9-7.7-7.7-7.7h-17.3v-65.5
	c0-4.8-2.9-7.7-7.7-7.7h-34.6c-4.8,0-7.7,2.9-7.7,7.7V181C628.1,184.9,630,186.8,633.9,186.8L633.9,186.8z M860.8,256
	c-4.8,0-7.7-2.9-7.7-7.7v-47.1c0-11.5-7.7-18.3-18.3-18.3c-6.3,0-12.6,5.1-17.4,8.9l-0.9,0.7c-1.9,1.7-3,4.2-2.9,6.7v50
	c0,4.8-2.9,7.7-7.7,7.7h-9.6c-4.8,0-7.7-2.9-7.7-7.7v-49c0-11.5-7.7-18.3-18.3-18.3c-6.7,0-13.5,4.8-18.3,8.7
	c-1.9,1.7-3,4.2-2.9,6.7v50c0,4.8-2.9,7.7-7.7,7.7h-9.6c-4.8,0-7.7-2.9-7.7-7.7v-80.8c0.2-3.1,2.7-5.6,5.8-5.8h5.7
	c3,0,5.7,2,6.7,4.8l3.8,9.6c0.4,1.2,1.8,1.9,3,1.5c0.3-0.1,0.6-0.3,0.8-0.5c6.7-6.7,16.3-16.4,29.8-16.4c14.4,0,24,5.8,29.8,17.3
	c0.4,1.2,1.8,1.9,3,1.5c0.3-0.1,0.6-0.3,0.8-0.5c5.8-7.7,17.3-18.3,30.8-18.3c20.2,0,33.6,13.5,33.6,38.5v50c0,4.8-2.9,7.7-7.7,7.7
	L860.8,256z"/>
</svg>
