<?xml version="1.0" encoding="utf-8"?>
<!-- Generator: Adobe Illustrator 26.0.0, SVG Export Plug-In . SVG Version: 6.00 Build 0)  -->
<svg version="1.1" id="Layer_1" xmlns="http://www.w3.org/2000/svg" xmlns:xlink="http://www.w3.org/1999/xlink" x="0px" y="0px"
	 viewBox="0 0 378.1 28.7" style="enable-background:new 0 0 378.1 28.7;" xml:space="preserve">
<style type="text/css">
	.st0{clip-path:url(#SVGID_00000094599800452298788970000011965609193532919443_);fill:#7451EB;}
</style>
<g>
	<g>
		<g>
			<g>
				<defs>
					<rect id="SVGID_1_" x="2" width="376.1" height="28.7"/>
				</defs>
				<clipPath id="SVGID_00000060709233044838215200000015190152825226080137_">
					<use xlink:href="#SVGID_1_"  style="overflow:visible;"/>
				</clipPath>
				<path style="clip-path:url(#SVGID_00000060709233044838215200000015190152825226080137_);fill:#7451EB;" d="M337.8,18.2L329,0.6
					h-6.2v27.6h6.6V16l6.5,12.1h3.9l6.5-12.1v12.1h6.6V0.6h-6.2L337.8,18.2L337.8,18.2z M298.2,14.4c0,4,3.2,7.3,7.3,7.3
					c4,0,7.3-3.2,7.3-7.3c0-4-3.2-7.3-7.3-7.3C301.4,7.1,298.2,10.3,298.2,14.4L298.2,14.4z M305.4,0c7.9,0,14.3,6.4,14.3,14.3
					s-6.4,14.3-14.3,14.3s-14.3-6.4-14.3-14.3S297.5,0,305.4,0L305.4,0z M267.1,14.4c0,4,3.2,7.3,7.3,7.3c4,0,7.3-3.2,7.3-7.3
					c0-4-3.2-7.3-7.3-7.3C270.4,7.1,267.1,10.3,267.1,14.4L267.1,14.4z M274.4,0c7.9,0,14.3,6.4,14.3,14.3s-6.4,14.3-14.3,14.3
					s-14.3-6.4-14.3-14.3C260,6.4,266.5,0,274.4,0L274.4,0z M240.9,6.7h4.2c1.5,0,2.7,0.4,3.4,1.1c0.8,0.7,1.2,1.7,1.2,3
					s-0.4,2.3-1.2,3c-0.8,0.7-1.9,1-3.4,1h-4.2V6.7L240.9,6.7z M257.7,28.2l-5.8-8.5c1.7-0.8,3-2,3.9-3.4c0.9-1.5,1.4-3.3,1.4-5.4
					s-0.5-3.9-1.4-5.4s-2.3-2.7-4-3.5s-3.8-1.2-6.2-1.2h-12v27.6h7.3v-7.2h3.5l4.9,7.2h8.4V28.2z M124.7,20.2l4.8,5.8
					c-2.4,1.7-5.3,2.7-8.4,2.7c-7.9,0-14.4-6.4-14.4-14.3S113.1,0,121.1,0c3.1,0,6.1,1,8.4,2.7l-4.8,5.8c-1-0.6-2.3-1-3.6-1
					c-3.8,0-6.9,3.1-6.9,6.9s3.1,6.8,6.9,6.8C122.5,21.2,123.7,20.8,124.7,20.2L124.7,20.2z M24.8,14.4c0,7.9-6.4,14.3-14.4,14.3
					c-3.2,0-6.1-1-8.4-2.7l4.8-5.8c1,0.6,2.3,1,3.6,1c3.8,0,6.9-3.1,6.9-6.8c0-3.8-3.1-6.9-6.9-6.9c-1.3,0-2.5,0.4-3.6,1L2,2.7
					C4.4,1,7.3,0,10.4,0C18.4,0,24.8,6.4,24.8,14.4L24.8,14.4z M206.4,19.8c0,1.7-0.4,3.2-1.3,4.5c-0.9,1.3-2.2,2.4-3.9,3.2
					s-3.9,1.2-6.4,1.2c-2.1,0-4.2-0.3-6.2-0.8s-3.6-1.3-4.9-2.2l4-4.8c0.8,0.4,1.6,0.7,2.5,1c1.5,0.5,3.1,0.8,4.6,0.8
					c2.8,0,4.3-0.8,4.3-2.2c0-0.8-0.4-1.4-1.2-1.8s-2.1-0.8-3.9-1.2c-2-0.4-3.6-0.9-4.9-1.4c-1.3-0.5-2.5-1.3-3.4-2.5
					c-0.9-1.1-1.4-2.7-1.4-4.6c0-1.7,0.4-3.2,1.3-4.5c0.9-1.4,2.2-2.4,3.9-3.2s3.9-1.2,6.4-1.2c1.7,0,3.4,0.2,5.1,0.6
					c1.7,0.4,3.1,1,4.4,1.8l-4.1,4.9c-1.9-0.8-3.7-1.2-5.5-1.2c-1.5,0-2.5,0.2-3.2,0.7s-1,1.1-1,1.8s0.4,1.3,1.2,1.7
					s2.1,0.8,3.9,1.1c2,0.4,3.7,0.9,5,1.4s2.4,1.3,3.4,2.4C205.9,16.4,206.4,17.9,206.4,19.8L206.4,19.8z M171.1,17l-3.4-8.8
					l-3.4,8.8H171.1L171.1,17z M183.1,28.2h-7.7l-2.1-5.4h-11.1l-2.1,5.4h-7.6l11.6-27.6h7.3L183.1,28.2L183.1,28.2z M151,22v6.2
					h-18.6V0.6h7.4V22H151L151,22z M103.7,0.6v27.6h-6.1L86.1,13.4v14.7h-7.3V0.6h6.1l11.6,14.7V0.6H103.7L103.7,0.6z M75.4,22.1v6
					H54.5V0.6h20.4v6h-13v4.7h10.4v5.8H61.8v5H75.4L75.4,22.1z M44,10.8c0-1.3-0.4-2.3-1.2-3s-1.9-1.1-3.4-1.1h-4.1v8.1h4.1
					c1.5,0,2.7-0.3,3.4-1C43.6,13,44,12.1,44,10.8L44,10.8z M51.5,10.8c0,2.1-0.5,3.9-1.4,5.4s-2.3,2.7-4,3.5s-3.8,1.2-6.2,1.2h-4.6
					v7.2h-7.4V0.6h12c2.4,0,4.4,0.4,6.2,1.2c1.7,0.8,3.1,2,4,3.5C51,6.9,51.5,8.7,51.5,10.8L51.5,10.8z M378.1,19.8
					c0,1.7-0.4,3.2-1.3,4.5s-2.2,2.4-3.9,3.2c-1.7,0.8-3.9,1.2-6.4,1.2c-2.1,0-4.2-0.3-6.2-0.8s-3.6-1.3-4.9-2.2l0,0l4-4.8
					c0.8,0.4,1.6,0.7,2.5,1c1.6,0.5,3.1,0.8,4.6,0.8c2.9,0,4.3-0.8,4.3-2.2c0-0.8-0.4-1.4-1.2-1.8c-0.8-0.4-2.1-0.8-3.9-1.2
					c-2-0.4-3.6-0.9-4.9-1.4c-1.3-0.5-2.5-1.3-3.4-2.5c-1-1.1-1.4-2.7-1.4-4.6c0-1.7,0.4-3.2,1.3-4.5c0.9-1.4,2.2-2.4,3.9-3.2
					c1.7-0.8,3.9-1.2,6.4-1.2c1.7,0,3.4,0.2,5.1,0.6s3.1,1,4.4,1.8L373,7.4c-1.9-0.8-3.7-1.2-5.4-1.2c-1.5,0-2.6,0.2-3.2,0.7
					c-0.7,0.5-1,1.1-1,1.8s0.4,1.3,1.2,1.7c0.8,0.4,2.1,0.8,3.9,1.1c2,0.4,3.7,0.9,5,1.4s2.5,1.3,3.4,2.4
					C377.6,16.4,378.1,17.9,378.1,19.8L378.1,19.8z M230.5,19.8c0,1.7-0.4,3.2-1.3,4.5c-0.9,1.3-2.2,2.4-3.9,3.2s-3.9,1.2-6.4,1.2
					c-2.1,0-4.2-0.3-6.2-0.8s-3.6-1.3-4.9-2.2l0,0l4-4.8c0.8,0.4,1.6,0.7,2.5,1c1.6,0.5,3.1,0.8,4.6,0.8c2.8,0,4.3-0.8,4.3-2.2
					c0-0.8-0.4-1.4-1.2-1.8s-2.1-0.8-3.9-1.2c-2-0.4-3.6-0.9-4.9-1.4c-1.3-0.5-2.5-1.3-3.4-2.5c-1-1.1-1.4-2.7-1.4-4.6
					c0-1.7,0.4-3.2,1.3-4.5c0.9-1.4,2.2-2.4,3.9-3.2s3.9-1.2,6.4-1.2c1.7,0,3.4,0.2,5.1,0.6c1.7,0.4,3.1,1,4.4,1.8l-4.1,4.9
					c-1.9-0.8-3.7-1.2-5.4-1.2c-1.5,0-2.6,0.2-3.2,0.7c-0.7,0.5-1,1.1-1,1.8s0.4,1.3,1.2,1.7s2.1,0.8,3.9,1.1c2,0.4,3.7,0.9,5,1.4
					c1.3,0.5,2.5,1.3,3.4,2.4C230.1,16.4,230.5,17.9,230.5,19.8L230.5,19.8z"/>
			</g>
		</g>
	</g>
</g>
</svg>
