<?xml version="1.0" encoding="UTF-8"?>
<svg xmlns="http://www.w3.org/2000/svg" xmlns:xlink="http://www.w3.org/1999/xlink" width="600px" height="900px" viewBox="0 0 600 899" version="1.1">
<g id="surface1">
<path style=" stroke:none;fill-rule:nonzero;fill:rgb(3.921569%,81.176472%,51.372552%);fill-opacity:1;" d="M 150.03125 899 C 232.8125 899 300 831.875 300 749.167969 L 300 599.332031 L 150.03125 599.332031 C 67.246094 599.332031 0.0585938 666.457031 0.0585938 749.167969 C 0.0585938 831.875 67.246094 899 150.03125 899 Z M 150.03125 899 "/>
<path style=" stroke:none;fill-rule:nonzero;fill:rgb(63.529414%,34.901962%,100%);fill-opacity:1;" d="M 0.0585938 449.5 C 0.0585938 366.792969 67.246094 299.667969 150.03125 299.667969 L 300 299.667969 L 300 599.332031 L 150.03125 599.332031 C 67.246094 599.332031 0.0585938 532.207031 0.0585938 449.5 Z M 0.0585938 449.5 "/>
<path style=" stroke:none;fill-rule:nonzero;fill:rgb(94.901961%,30.588236%,11.764706%);fill-opacity:1;" d="M 0.0585938 149.832031 C 0.0585938 67.125 67.246094 0 150.03125 0 L 300 0 L 300 299.667969 L 150.03125 299.667969 C 67.246094 299.667969 0.0585938 232.542969 0.0585938 149.832031 Z M 0.0585938 149.832031 "/>
<path style=" stroke:none;fill-rule:nonzero;fill:rgb(100%,44.705883%,38.431373%);fill-opacity:1;" d="M 300 0 L 449.96875 0 C 532.753906 0 599.941406 67.125 599.941406 149.832031 C 599.941406 232.542969 532.753906 299.667969 449.96875 299.667969 L 300 299.667969 Z M 300 0 "/>
<path style=" stroke:none;fill-rule:nonzero;fill:rgb(10.196079%,73.725492%,99.607843%);fill-opacity:1;" d="M 599.941406 449.5 C 599.941406 532.207031 532.753906 599.332031 449.96875 599.332031 C 367.1875 599.332031 300 532.207031 300 449.5 C 300 366.792969 367.1875 299.667969 449.96875 299.667969 C 532.753906 299.667969 599.941406 366.792969 599.941406 449.5 Z M 599.941406 449.5 "/>
</g>
</svg>
